<svg xmlns="http://www.w3.org/2000/svg" xmlns:xlink="http://www.w3.org/1999/xlink" viewBox="0 0 129.2 29.4"><defs><clipPath id="a"><rect width="129.2" height="29.37" fill="none"/></clipPath></defs><title>metropolia</title><g clip-path="url(#a)"><path d="M44.2,21.8h-3V10.2h-.1c-1.6,4.1-3.3,7.8-5,11.6H34.5c-1.6-3.8-3.2-7.5-4.7-11.6h-.1V21.8H27.3V6.9H31c1.5,3.7,4,9.5,4.6,11.4.7-2,3.4-7.7,5.1-11.4h3.5Zm8.9-6.6c.1-1.6-.4-2.7-1.8-2.7A2.3,2.3,0,0,0,49,14.8v.4Zm-4.2,1.5A3.3,3.3,0,0,0,52,20.2h0a5.2,5.2,0,0,0,2.9-.9l.8,1.5A7.9,7.9,0,0,1,51.5,22a5.5,5.5,0,0,1-5.6-5.4v-.4A5.2,5.2,0,0,1,51,10.9h.3c3.3,0,4.7,2.6,4.5,5.8ZM61,11.2h2.8v1.4H61v5.2c0,1.8.5,2.5,1.5,2.5a2,2,0,0,0,1.3-.4l.5,1.4a5.5,5.5,0,0,1-2.8.7c-2.3,0-3.3-1.2-3.3-3.4v-6H56.7V11.2h1.5V8.6L61,8ZM68.3,13l.6-.8c.4-.5,1-1.3,1.8-1.3a2.6,2.6,0,0,1,2,1l-1.1,1.9a2.8,2.8,0,0,0-1.3-.4c-1,0-2,.8-2,3.1v5.3H65.5V11.2h2.8Zm12,3.3c0-1.7-.6-3.8-2.6-3.8s-2.6,2.1-2.6,3.8.6,4.1,2.6,4.1,2.6-2.2,2.6-4.1m-8.2,0a5.4,5.4,0,0,1,5.4-5.4h.2a5.4,5.4,0,0,1,5.6,5.2v.2a5.6,5.6,0,1,1-11.2,0h0m15.4.3c0,2.2,1.1,3.7,2.6,3.7s2.6-2.2,2.6-4.1-.8-3.6-2.4-3.6-2.8,1.5-2.8,4m0-4h.1A4.2,4.2,0,0,1,91,10.9c3.3,0,4.7,3,4.7,5.3s-1.9,5.8-5,5.8a4,4,0,0,1-3.2-1.6v6.7H84.7V11.2h2.8Zm17.6,3.7c0-1.7-.6-3.8-2.6-3.8s-2.6,2.1-2.6,3.8.6,4.1,2.6,4.1,2.6-2.2,2.6-4.1m-8.2,0a5.6,5.6,0,1,1,5.6,5.6,5.6,5.6,0,0,1-5.6-5.6h0" fill="#686a6e"/></g><path d="M109.9,6.2h2.8V21.8h-2.8Z" fill="#686a6e"/><g clip-path="url(#a)"><path d="M118,21.8h-2.8V11.2H118ZM114.9,8a1.7,1.7,0,0,1,3.4,0,1.7,1.7,0,0,1-3.4,0m9.5,8.1a2.6,2.6,0,0,0-2.1,2.5,1.4,1.4,0,0,0,1.3,1.5h0c1.1,0,2.6-1.4,2.4-4.5Zm.9,4.6a4.6,4.6,0,0,1-2.7,1.3,3.1,3.1,0,0,1-3.1-3.1h0c0-2,1.5-3.2,4-3.9l2.5-.7a2,2,0,0,0-2-1.6,4.1,4.1,0,0,0-2.8,1.1l-.9-1.4a6.8,6.8,0,0,1,4.1-1.4c1.9,0,4.3.6,4.3,3.9v4.4a5.8,5.8,0,0,0,.5,2.6h-3a4.5,4.5,0,0,1-.3-1.6Z" fill="#686a6e"/></g><path d="M22.5,3.2c-.2-.8-.6-1.5-1.4-1.6s-3.4.9-5.5,3.1a2,2,0,0,0-1.9-1.6c-3.5,0-7.1,4.8-9.6,10.4A58.1,58.1,0,0,0,0,29.4H1.6s1-8.4,4.2-14.9,5.3-8.1,7.1-9.1h.2c.4.1.6.7.7,1.5a49.7,49.7,0,0,0-2.9,4.5c-4,7-2.3,8.9-1,8.9s2.3-1.8,2.4-1.8a24.8,24.8,0,0,0,2.4-5.4c1.1-3.2,1.2-4.9,1.1-5.8a20.3,20.3,0,0,1,3.6-3.3h.7c.3.1.5.5.6,1a30,30,0,0,0-2.5,3.7c-3.4,6.4-2,8.1-.9,8.1s2.2-1.8,2.2-1.8l-.2.4a18.8,18.8,0,0,0,2.4-5,12.2,12.2,0,0,0,1-5.2,16.5,16.5,0,0,1,4.7-3.4L27.6,0A14.3,14.3,0,0,0,22.5,3.2Zm-9.3,9.9A16.6,16.6,0,0,1,11,18.4a1.7,1.7,0,0,1-.8.7,18.4,18.4,0,0,1,2.6-7.4l.9-1.5A25,25,0,0,1,13.2,13.1Zm7-2.7a16.7,16.7,0,0,1-2.1,4.8,1.1,1.1,0,0,1-.6.6c-.1-1,.9-3.8,2.6-6.8l.6-.9Z" fill="#f26522"/></svg>