<?xml version="1.0" encoding="iso-8859-1"?>
<!-- Generator: Adobe Illustrator 19.0.0, SVG Export Plug-In . SVG Version: 6.00 Build 0)  -->
<svg version="1.1" id="Capa_1" xmlns="http://www.w3.org/2000/svg" xmlns:xlink="http://www.w3.org/1999/xlink" x="0px" y="0px"
	 viewBox="0 0 426.667 426.667" style="enable-background:new 0 0 426.667 426.667;" xml:space="preserve">
<g>
	<g>
		<circle cx="288" cy="298.667" r="21.333"/>
	</g>
</g>
<g>
	<g>
		<circle cx="138.667" cy="298.667" r="21.333"/>
	</g>
</g>
<g>
	<g>
		<rect x="106.88" y="149.333" width="213.333" height="106.667"/>
	</g>
</g>
<g>
	<g>
		<path d="M337.067,16.96C298.667,2.027,253.013,0,213.333,0S128,2.027,89.6,16.96C32.64,39.253,0,86.4,0,146.453v280.213h426.667
			V146.453C426.667,86.4,394.027,39.253,337.067,16.96z M341.333,296c0,30.933-25.067,56-56,56l24,24v8h-32l-32-32H184.96l-32,32
			h-35.627v-8l24-24c-30.933,0-56-25.067-56-56V149.333c0-56,64-64,128-64c70.72,0,128,8,128,64V296z"/>
	</g>
</g>
<g>
</g>
<g>
</g>
<g>
</g>
<g>
</g>
<g>
</g>
<g>
</g>
<g>
</g>
<g>
</g>
<g>
</g>
<g>
</g>
<g>
</g>
<g>
</g>
<g>
</g>
<g>
</g>
<g>
</g>
</svg>
