<?xml version="1.0" encoding="iso-8859-1"?>
<!-- Generator: Adobe Illustrator 19.0.0, SVG Export Plug-In . SVG Version: 6.00 Build 0)  -->
<svg version="1.1" id="Capa_1" xmlns="http://www.w3.org/2000/svg" xmlns:xlink="http://www.w3.org/1999/xlink" x="0px" y="0px"
	 viewBox="0 0 426.667 426.667" style="enable-background:new 0 0 426.667 426.667;" xml:space="preserve">
<g>
	<g>
		<path d="M234.56,64.32L250.667,32H320V0H106.667v32H208l-16.213,32.32C125.013,66.347,64,79.68,64,138.667V318.72
			c0,30.827,25.28,56.64,55.253,63.467L85.333,416v10.667h47.573L175.573,384H256l42.667,42.667h42.667V416l-32-32h-1.707
			c36.053,0,55.04-29.333,55.04-65.28V138.667C362.667,79.04,306.987,66.133,234.56,64.32z M213.333,352c-17.707,0-32-14.293-32-32
			s14.293-32,32-32s32,14.293,32,32S231.04,352,213.333,352z M320,256H106.667V149.333H320V256z"/>
	</g>
</g>
<g>
</g>
<g>
</g>
<g>
</g>
<g>
</g>
<g>
</g>
<g>
</g>
<g>
</g>
<g>
</g>
<g>
</g>
<g>
</g>
<g>
</g>
<g>
</g>
<g>
</g>
<g>
</g>
<g>
</g>
</svg>
